<svg width="800" height="400" viewBox="0 0 800 400" xmlns="http://www.w3.org/2000/svg">
  <rect width="800" height="400" fill="#1e1e1e"/>
  
  <path d="M0 40h800M0 80h800M0 120h800M0 160h800M0 200h800M0 240h800M0 280h800M0 320h800M0 360h800M40 0v400M80 0v400M120 0v400M160 0v400M200 0v400M240 0v400M280 0v400M320 0v400M360 0v400M400 0v400M440 0v400M480 0v400M520 0v400M560 0v400M600 0v400M640 0v400M680 0v400M720 0v400M760 0v400" stroke="#333" stroke-width="1"/>

  <g transform="translate(400, 200)">
    <circle r="120" fill="none" stroke="#00d2ff" stroke-width="2" opacity="0.3"/>
    <circle r="100" fill="#2d2d2d" stroke="#666" stroke-width="5"/>
    
    <path d="M0 -105 l8 15 h-16 z" fill="#888" transform="rotate(0) translate(0, 0)"/>
    <path d="M0 -105 l8 15 h-16 z" fill="#888" transform="rotate(30)"/>
    <path d="M0 -105 l8 15 h-16 z" fill="#888" transform="rotate(60)"/>
    <path d="M0 -105 l8 15 h-16 z" fill="#888" transform="rotate(90)"/>
    <path d="M0 -105 l8 15 h-16 z" fill="#888" transform="rotate(120)"/>
    <path d="M0 -105 l8 15 h-16 z" fill="#888" transform="rotate(150)"/>
    <path d="M0 -105 l8 15 h-16 z" fill="#888" transform="rotate(180)"/>
    <path d="M0 -105 l8 15 h-16 z" fill="#888" transform="rotate(210)"/>
    <path d="M0 -105 l8 15 h-16 z" fill="#888" transform="rotate(240)"/>
    <path d="M0 -105 l8 15 h-16 z" fill="#888" transform="rotate(270)"/>
    <path d="M0 -105 l8 15 h-16 z" fill="#888" transform="rotate(300)"/>
    <path d="M0 -105 l8 15 h-16 z" fill="#888" transform="rotate(330)"/>

    <text x="-45" y="15" font-family="Arial Black, sans-serif" font-size="60" fill="#ffffff">d</text>
    <text x="5" y="15" font-family="Arial Black, sans-serif" font-size="60" fill="#00d2ff">m</text>
    
    <text x="-60" y="50" font-family="monospace" font-size="12" fill="#00d2ff" opacity="0.6">01100100 01101101</text>
  </g>

  <text x="400" y="360" font-family="sans-serif" font-size="24" fill="#aaa" text-anchor="middle">DIGITAL x MARUNOKO</text>
</svg>